# xmcd
#
# Track frame offsets:
#	183
#	16358
#	31833
#	71208
#	90533
#	125633
#	152583
#
# Disc length: 2379 seconds
#
# Revision: 0
# Processed by: cddbd v1.4PL0 Copyright (c) Steve Scherf et al.
# Submitted via: EasyCDDAExtractor 4.6.9.1
#
DISCID=53094907
DTITLE=Undercover - Best Friend
DYEAR=1900
DGENRE=
TTITLE0=Best Friend(7 Inch Edit)
TTITLE1=Best Friend(Dan's Monster Club Edit)
TTITLE2=Best Friend(Dan's Monster Club Mix)
TTITLE3=Best Friend(4 AM Mix)
TTITLE4=Best Friend(The Steve Mac Mix)
TTITLE5=Best Friend(Orrsome Dub Mix)
TTITLE6=Best Friend(Gems For Jem Dub Mix)
EXTD=
EXTT0=
EXTT1=
EXTT2=
EXTT3=
EXTT4=
EXTT5=
EXTT6=
PLAYORDER=
